<?xml version="1.0" encoding="utf-8"?>
<!-- Generator: Adobe Illustrator 18.1.0, SVG Export Plug-In . SVG Version: 6.00 Build 0)  -->
<svg version="1.1" id="Layer_1" xmlns="http://www.w3.org/2000/svg" xmlns:xlink="http://www.w3.org/1999/xlink" x="0px" y="0px"
	 viewBox="0 0 243.1 62" enable-background="new 0 0 243.1 62" xml:space="preserve">
<g>
	<g>
		<polygon fill="#FFFFFF" points="17,44.5 29.2,17.9 41.4,44.5 41.4,44.5 53.7,17.9 65.9,44.5 		"/>
	</g>
	<circle fill="#FFFFFF" cx="77.9" cy="31.4" r="13"/>
	<path fill="#FFFFFF" d="M155,44.6c-9.4-0.1-17-6.5-17-14.2c0-7.8,7.7-14.2,17.2-14.2L155,44.6z"/>
	<polyline fill="#FFFFFF" points="160.3,16.3 160.3,44.5 188.4,44.5 	"/>
	<g>
		<polyline fill="#FFFFFF" points="191.3,44.5 198.3,30.4 205.3,44.5 		"/>
		<circle fill="#FFFFFF" cx="198.3" cy="22.5" r="6.1"/>
	</g>
	<g>
		<polyline fill="#FFFFFF" points="94.3,19 94.3,26.8 103.6,26.8 119.1,26.8 119.1,19 		"/>
		<polyline fill="#FFFFFF" points="102.8,43.8 110.6,43.8 110.6,23.7 102.8,23.7 		"/>
	</g>
	<polyline fill="#FFFFFF" points="121.3,30.4 121.3,34.7 126.6,34.7 135.4,34.7 135.4,30.4 	"/>
	<path fill="#FFFFFF" d="M224.9,44.6c-9.4-0.1-17-6.5-17-14.2c0-7.8,7.7-14.2,17.2-14.2L224.9,44.6z"/>
</g>
</svg>
